<svg xmlns="http://www.w3.org/2000/svg" xmlns:xlink="http://www.w3.org/1999/xlink" viewBox="0 0 1000 1000"><defs><style>.cls-1{isolation:isolate;}.cls-2{fill:url(#linear-gradient);}.cls-3{fill:url(#radial-gradient);}.cls-4,.cls-5{mix-blend-mode:overlay;}.cls-4{fill:url(#radial-gradient-2);}.cls-5{opacity:0.4;fill:url(#Degradado_sin_nombre_34);}</style><linearGradient id="linear-gradient" x1="955.59" y1="-9.11" x2="77.38" y2="972.26" gradientUnits="userSpaceOnUse"><stop offset="0" stop-color="#ffba24"/><stop offset="1" stop-color="#f50"/></linearGradient><radialGradient id="radial-gradient" cx="8401.03" cy="267.96" r="702.57" gradientTransform="matrix(-1, 0, 0, 1, 8985.67, 0)" gradientUnits="userSpaceOnUse"><stop offset="0" stop-color="#fff4c3"/><stop offset="0.16" stop-color="#ffe036"/><stop offset="1" stop-color="#fa761c"/></radialGradient><radialGradient id="radial-gradient-2" cx="7013.08" cy="803.24" r="105.46" gradientTransform="matrix(-0.84, 1.15, -1.62, -1.31, 7830.38, -6695.71)" gradientUnits="userSpaceOnUse"><stop offset="0" stop-color="#fff"/><stop offset="0.1" stop-color="#fff" stop-opacity="0.85"/><stop offset="0.29" stop-color="#fff" stop-opacity="0.59"/><stop offset="0.47" stop-color="#fff" stop-opacity="0.38"/><stop offset="0.63" stop-color="#fff" stop-opacity="0.22"/><stop offset="0.78" stop-color="#fff" stop-opacity="0.1"/><stop offset="0.91" stop-color="#fff" stop-opacity="0.03"/><stop offset="1" stop-color="#fff" stop-opacity="0"/></radialGradient><radialGradient id="Degradado_sin_nombre_34" cx="4446.14" cy="-54.12" r="101.77" gradientTransform="matrix(-1.17, -1.1, 0.22, -0.73, 5513.69, 5548.25)" xlink:href="#radial-gradient-2"/></defs><g class="cls-1"><g id="Layer_1" data-name="Layer 1"><polygon class="cls-2" points="890.97 811.41 781.5 818.61 760.87 926.35 655.55 895.67 599.33 989.86 510.84 925 425.79 994.29 364.83 903.1 261.21 939.11 235.12 832.55 125.42 830.95 137.34 721.9 34.81 682.88 83.33 584.47 0.33 512.73 79.56 436.86 26.1 341.07 126.5 296.87 109.03 188.59 218.48 181.4 239.11 73.65 344.44 104.33 400.66 10.12 489.15 74.97 574.21 5.71 635.16 96.88 738.79 60.87 764.89 167.45 874.58 169.05 862.65 278.08 965.18 317.1 916.67 415.51 999.67 487.25 920.45 563.12 973.91 658.91 873.5 703.1 890.97 811.41"/><path class="cls-3" d="M129.9,500c0,204.41,165.7,370.12,370.09,370.12S870.1,704.38,870.1,500,704.4,129.91,500,129.91,129.9,295.6,129.9,500Z"/><path class="cls-4" d="M556.39,461.93C462.14,385.42,425.31,269,474.18,201.82S639.12,142.2,733.42,218.6s131,192.93,82.16,260.08S650.62,538.33,556.39,461.93Z"/><path class="cls-5" d="M172.88,581.79c12.51-40.93,76-24,141.83,37.89s109.11,145.17,96.68,186.15-75.93,24-141.83-37.9S160.45,622.67,172.88,581.79Z"/></g></g></svg>