<svg xmlns="http://www.w3.org/2000/svg" xmlns:xlink="http://www.w3.org/1999/xlink" viewBox="0 0 1000 1000"><defs><style>.cls-1{isolation:isolate;}.cls-2{fill:url(#radial-gradient);}.cls-3{fill:#acadb2;}.cls-4,.cls-5{mix-blend-mode:overlay;}.cls-4{fill:url(#radial-gradient-2);}.cls-5{opacity:0.4;fill:url(#Degradado_sin_nombre_34);}</style><radialGradient id="radial-gradient" cx="8371.4" cy="186.73" r="948.52" gradientTransform="matrix(-1, 0, 0, 1, 8985.67, 0)" gradientUnits="userSpaceOnUse"><stop offset="0" stop-color="#f8f8f8"/><stop offset="0.16" stop-color="#ede9f1"/><stop offset="1" stop-color="#9b9da2"/></radialGradient><radialGradient id="radial-gradient-2" cx="7516.29" cy="-509.01" r="142.38" gradientTransform="matrix(-0.84, 1.15, -1.62, -1.31, 6179.41, -9054.56)" gradientUnits="userSpaceOnUse"><stop offset="0" stop-color="#fff"/><stop offset="0.1" stop-color="#fff" stop-opacity="0.85"/><stop offset="0.29" stop-color="#fff" stop-opacity="0.59"/><stop offset="0.47" stop-color="#fff" stop-opacity="0.38"/><stop offset="0.63" stop-color="#fff" stop-opacity="0.22"/><stop offset="0.78" stop-color="#fff" stop-opacity="0.1"/><stop offset="0.91" stop-color="#fff" stop-opacity="0.03"/><stop offset="1" stop-color="#fff" stop-opacity="0"/></radialGradient><radialGradient id="Degradado_sin_nombre_34" cx="4274.4" cy="-2308.29" r="137.4" gradientTransform="matrix(-1.17, -1.1, 0.22, -0.73, 5740.13, 3785.39)" xlink:href="#radial-gradient-2"/></defs><g class="cls-1"><g id="Layer_1" data-name="Layer 1"><path class="cls-2" d="M.33,500C.33,776,224.05,999.65,500,999.65S999.67,776,999.67,500,776,.35,500,.35.33,224.07.33,500Z"/><path class="cls-3" d="M150.86,588.42c47-4.23,80.5-57.5,75-119s-48-107.88-95-103.65-80.49,57.5-75,118.94S103.92,592.61,150.86,588.42Z"/><path class="cls-3" d="M110.17,633.09C82,647.88,74.93,689.73,94.27,726.52s57.79,54.69,85.94,39.94,35.21-56.6,15.87-93.39S138.29,618.35,110.17,633.09Z"/><path class="cls-3" d="M221.6,588.71c-16.63,8.75-20.82,33.43-9.4,55.19s34.15,32.31,50.78,23.6,20.78-33.43,9.4-55.19S238.22,580,221.6,588.71Z"/><path class="cls-3" d="M961.5,518.09c-8.64-61.12-53.45-105.32-100.15-98.74s-77.49,61.48-68.85,122.59S846,647.26,892.61,640.65,970.14,579.17,961.5,518.09Z"/><path class="cls-3" d="M899.77,372.65c27.32-16.19,32.31-58.33,11.13-94.11S850.43,226.86,823.08,243s-32.32,58.3-11.14,94.08S872.41,388.81,899.77,372.65Z"/><path class="cls-3" d="M797.27,367c-12.51-21.14-35.71-30.54-51.9-21s-19.08,34.44-6.58,55.58,35.75,30.54,51.9,21S809.81,388.16,797.27,367Z"/><path class="cls-4" d="M576.15,448.62c-127.22-103.29-177-260.44-111-351.12s222.67-80.56,350,22.63S992,380.6,926.08,471.21C860,562,703.37,551.81,576.15,448.62Z"/><path class="cls-5" d="M58.38,610.43c16.88-55.26,102.53-32.35,191.48,51.18s147.32,196,130.51,251.3-102.5,32.38-191.48-51.14S41.61,665.66,58.38,610.43Z"/></g></g></svg>