<svg xmlns="http://www.w3.org/2000/svg" xmlns:xlink="http://www.w3.org/1999/xlink" viewBox="0 0 1000 1000"><defs><style>.cls-1{isolation:isolate;}.cls-2{fill:url(#linear-gradient);}.cls-3{fill:url(#radial-gradient);}.cls-10,.cls-4,.cls-5,.cls-8,.cls-9{mix-blend-mode:overlay;}.cls-4{fill:url(#radial-gradient-2);}.cls-5,.cls-9{opacity:0.4;}.cls-5{fill:url(#Degradado_sin_nombre_34);}.cls-6{fill:url(#radial-gradient-3);}.cls-7{fill:url(#radial-gradient-4);}.cls-8{fill:url(#radial-gradient-5);}.cls-9{fill:url(#radial-gradient-6);}.cls-10{opacity:0.2;fill:url(#Degradado_sin_nombre_34-2);}</style><linearGradient id="linear-gradient" x1="975.32" y1="117.7" x2="483.65" y2="667.13" gradientUnits="userSpaceOnUse"><stop offset="0" stop-color="#ffba24"/><stop offset="1" stop-color="#f50"/></linearGradient><radialGradient id="radial-gradient" cx="6178.03" cy="272.81" r="393.35" gradientTransform="matrix(-1, 0, 0, 1, 6945.67, 0)" gradientUnits="userSpaceOnUse"><stop offset="0" stop-color="#fff4c3"/><stop offset="0.16" stop-color="#ffe036"/><stop offset="1" stop-color="#fa761c"/></radialGradient><radialGradient id="radial-gradient-2" cx="5458.21" cy="353.7" r="59.05" gradientTransform="matrix(-0.84, 1.15, -1.62, -1.31, 5954.4, -5519.04)" gradientUnits="userSpaceOnUse"><stop offset="0" stop-color="#fff"/><stop offset="0.1" stop-color="#fff" stop-opacity="0.85"/><stop offset="0.29" stop-color="#fff" stop-opacity="0.59"/><stop offset="0.47" stop-color="#fff" stop-opacity="0.38"/><stop offset="0.63" stop-color="#fff" stop-opacity="0.22"/><stop offset="0.78" stop-color="#fff" stop-opacity="0.1"/><stop offset="0.91" stop-color="#fff" stop-opacity="0.03"/><stop offset="1" stop-color="#fff" stop-opacity="0"/></radialGradient><radialGradient id="Degradado_sin_nombre_34" cx="2579.48" cy="1476.12" r="56.98" gradientTransform="matrix(-1.17, -1.1, 0.22, -0.73, 3298.55, 4425.54)" xlink:href="#radial-gradient-2"/><radialGradient id="radial-gradient-3" cx="555.44" cy="377.11" r="676.67" gradientTransform="translate(1110.88 652.58) rotate(180) scale(1 0.73)" gradientUnits="userSpaceOnUse"><stop offset="0" stop-color="#fff"/><stop offset="0.2" stop-color="#d5f3ff"/><stop offset="1" stop-color="#85bcf1"/></radialGradient><radialGradient id="radial-gradient-4" cx="651.33" cy="433.85" r="575.25" gradientUnits="userSpaceOnUse"><stop offset="0" stop-color="#ffe036"/><stop offset="0.08" stop-color="#fecb31" stop-opacity="0.81"/><stop offset="0.18" stop-color="#fdb52b" stop-opacity="0.6"/><stop offset="0.28" stop-color="#fca227" stop-opacity="0.41"/><stop offset="0.38" stop-color="#fb9223" stop-opacity="0.26"/><stop offset="0.48" stop-color="#fb8620" stop-opacity="0.15"/><stop offset="0.58" stop-color="#fa7d1e" stop-opacity="0.07"/><stop offset="0.68" stop-color="#fa781c" stop-opacity="0.02"/><stop offset="0.77" stop-color="#fa761c" stop-opacity="0"/></radialGradient><radialGradient id="radial-gradient-5" cx="5642.4" cy="436.92" r="81.64" xlink:href="#radial-gradient-2"/><radialGradient id="radial-gradient-6" cx="5639.95" cy="286.11" r="64.16" xlink:href="#radial-gradient-2"/><radialGradient id="Degradado_sin_nombre_34-2" cx="105.33" cy="740.68" r="46.92" gradientTransform="matrix(0.9, -0.43, 1.26, 2.62, -924.88, -1156.38)" xlink:href="#radial-gradient-2"/></defs><g class="cls-1"><g id="Layer_1" data-name="Layer 1"><polygon class="cls-2" points="939.15 577.07 877.86 581.11 866.31 641.44 807.34 624.25 775.87 676.99 726.33 640.69 678.71 679.48 644.57 628.42 586.57 648.57 571.95 588.92 510.54 588.02 517.21 526.96 459.82 505.12 486.97 450.04 440.51 409.88 484.87 367.38 454.94 313.77 511.15 289.01 501.36 228.39 562.63 224.36 574.19 164.03 633.16 181.21 664.63 128.48 714.17 164.77 761.79 126 795.94 177.05 853.94 156.88 868.55 216.55 929.96 217.44 923.28 278.5 980.69 300.34 953.54 355.42 1000 395.6 955.64 438.07 985.58 491.7 929.36 516.44 939.15 577.07"/><circle class="cls-3" cx="720.25" cy="402.73" r="207.21"/><path class="cls-4" d="M751.82,381.41c-52.77-42.81-73.38-108-46-145.61s92.34-33.39,145.14,9.38,73.35,108,46,145.62S804.58,424.21,751.82,381.41Z"/><path class="cls-5" d="M537.11,448.53c7-22.91,42.52-13.43,79.41,21.22S677.61,551,670.65,574s-42.53,13.41-79.42-21.22S530.14,471.43,537.11,448.53Z"/><path class="cls-6" d="M703.06,486.61c-9.24-135.29-121.85-242.2-259.48-242.2S193.34,351.32,184.1,486.61C81.57,491.69,0,576.41,0,680.17,0,787.23,86.78,874,193.82,874H693.33c107,0,193.82-86.77,193.82-193.83C887.15,576.41,805.57,491.69,703.06,486.61Z"/><path class="cls-7" d="M703.06,486.61c-9.24-135.29-121.85-242.2-259.48-242.2S193.34,351.32,184.1,486.61C81.57,491.69,0,576.41,0,680.17,0,787.23,86.78,874,193.82,874H693.33c107,0,193.82-86.77,193.82-193.83C887.15,576.41,805.57,491.69,703.06,486.61Z"/><path class="cls-8" d="M443.59,510.72C370.64,451.52,342.13,361.4,380,309.41s127.68-46.19,200.66,13S682,471.73,644.23,523.7,516.54,569.88,443.59,510.72Z"/><path class="cls-9" d="M704.42,685.68c-57.34-46.53-79.73-117.36-50-158.23s100.34-36.27,157.7,10.21,79.7,117.36,50,158.2S761.75,732.17,704.42,685.68Z"/><path class="cls-10" d="M138.58,692.17c-42.31-66-91.46-97.78-109.87-71s1.06,102,43.35,168,91.51,97.8,109.87,71S180.9,758.2,138.58,692.17Z"/></g></g></svg>