<svg xmlns="http://www.w3.org/2000/svg" xmlns:xlink="http://www.w3.org/1999/xlink" viewBox="0 0 1000 1000"><defs><style>.cls-1{isolation:isolate;}.cls-2{fill:url(#radial-gradient);}.cls-3{fill:#acadb2;}.cls-4,.cls-5,.cls-7,.cls-8,.cls-9{mix-blend-mode:overlay;}.cls-4{fill:url(#radial-gradient-2);}.cls-5,.cls-8{opacity:0.4;}.cls-5{fill:url(#Degradado_sin_nombre_34);}.cls-6{fill:url(#radial-gradient-3);}.cls-7{fill:url(#radial-gradient-4);}.cls-8{fill:url(#radial-gradient-5);}.cls-9{opacity:0.2;fill:url(#Degradado_sin_nombre_34-2);}</style><radialGradient id="radial-gradient" cx="6145.95" cy="238.65" r="492.93" gradientTransform="matrix(-1, 0, 0, 1, 6945.67, 0)" gradientUnits="userSpaceOnUse"><stop offset="0" stop-color="#f8f8f8"/><stop offset="0.16" stop-color="#ede9f1"/><stop offset="1" stop-color="#9b9da2"/></radialGradient><radialGradient id="radial-gradient-2" cx="5983.33" cy="-963.66" r="73.99" gradientTransform="matrix(-0.84, 1.15, -1.62, -1.31, 4303.43, -7877.89)" gradientUnits="userSpaceOnUse"><stop offset="0" stop-color="#fff"/><stop offset="0.1" stop-color="#fff" stop-opacity="0.85"/><stop offset="0.29" stop-color="#fff" stop-opacity="0.59"/><stop offset="0.47" stop-color="#fff" stop-opacity="0.38"/><stop offset="0.63" stop-color="#fff" stop-opacity="0.22"/><stop offset="0.78" stop-color="#fff" stop-opacity="0.1"/><stop offset="0.91" stop-color="#fff" stop-opacity="0.03"/><stop offset="1" stop-color="#fff" stop-opacity="0"/></radialGradient><radialGradient id="Degradado_sin_nombre_34" cx="2374.12" cy="-670.01" r="71.4" gradientTransform="matrix(-1.17, -1.1, 0.22, -0.73, 3524.99, 2662.67)" xlink:href="#radial-gradient-2"/><radialGradient id="radial-gradient-3" cx="554.59" cy="362.07" r="675.64" gradientTransform="translate(1109.17 626.56) rotate(180) scale(1 0.73)" gradientUnits="userSpaceOnUse"><stop offset="0" stop-color="#fff"/><stop offset="0.2" stop-color="#d5f3ff"/><stop offset="1" stop-color="#85bcf1"/></radialGradient><radialGradient id="radial-gradient-4" cx="6190.63" cy="-866.84" r="81.52" xlink:href="#radial-gradient-2"/><radialGradient id="radial-gradient-5" cx="6188.18" cy="-1017.42" r="64.06" xlink:href="#radial-gradient-2"/><radialGradient id="Degradado_sin_nombre_34-2" cx="105.15" cy="725.09" r="46.84" gradientTransform="matrix(0.9, -0.43, 1.26, 2.62, -905.21, -1131.14)" xlink:href="#radial-gradient-2"/></defs><g class="cls-1"><g id="Layer_1" data-name="Layer 1"><path class="cls-2" d="M480.66,401.46c0,143.4,116.27,259.65,259.67,259.65S1000,544.86,1000,401.46,883.74,141.79,740.33,141.79,480.66,258.05,480.66,401.46Z"/><path class="cls-3" d="M558.89,447.4c24.4-2.2,41.83-29.88,39-61.83s-25-56.07-49.38-53.87-41.83,29.88-39,61.81S534.49,449.58,558.89,447.4Z"/><path class="cls-3" d="M537.74,470.61c-14.63,7.69-18.31,29.44-8.26,48.56s30,28.42,44.66,20.75,18.3-29.41,8.25-48.53S552.36,463,537.74,470.61Z"/><path class="cls-3" d="M595.65,447.55c-8.64,4.55-10.82,17.37-4.88,28.68S608.52,493,617.16,488.5,628,471.12,622,459.81,604.29,443,595.65,447.55Z"/><path class="cls-3" d="M980.17,410.85c-4.49-31.76-27.78-54.73-52-51.32s-40.27,32-35.78,63.72,27.78,54.73,52,51.29S984.65,442.59,980.17,410.85Z"/><path class="cls-3" d="M948.09,335.27c14.19-8.42,16.79-30.32,5.78-48.91s-31.42-26.86-45.64-18.47-16.79,30.3-5.79,48.9S933.87,343.66,948.09,335.27Z"/><path class="cls-3" d="M894.82,332.34c-6.5-11-18.56-15.87-27-10.91s-9.92,17.9-3.42,28.88,18.57,15.87,27,10.92S901.34,343.33,894.82,332.34Z"/><path class="cls-4" d="M779.91,374.75c-66.12-53.68-92-135.35-57.69-182.47S837.94,150.41,904.12,204,996,339.4,961.76,386.49,846,428.37,779.91,374.75Z"/><path class="cls-5" d="M510.83,458.84c8.77-28.72,53.28-16.81,99.51,26.59S686.9,587.29,678.16,616s-53.27,16.83-99.51-26.58S502.11,487.54,510.83,458.84Z"/><path class="cls-6" d="M702,471.4c-9.24-135.08-121.66-241.82-259.09-241.82S193.05,336.32,183.82,471.4C81.44,476.48,0,561.05,0,664.68,0,771.57,86.64,858.21,193.52,858.21H692.27c106.87,0,193.51-86.64,193.51-193.53C885.78,561.05,804.34,476.48,702,471.4Z"/><path class="cls-7" d="M442.91,495.48c-72.86-59.11-101.31-149.09-63.54-201s127.48-46.09,200.37,13,101.26,149.12,63.5,201S515.75,554.55,442.91,495.48Z"/><path class="cls-8" d="M703.35,670.16c-57.27-46.45-79.62-117.17-49.94-158S753.59,476,810.86,522.36s79.58,117.2,49.92,158S760.58,716.59,703.35,670.16Z"/><path class="cls-9" d="M138.37,676.66C96.11,610.75,47.05,579,28.66,605.75S29.71,707.57,71.94,773.5s91.37,97.65,109.7,70.92S180.61,742.59,138.37,676.66Z"/></g></g></svg>