<svg xmlns="http://www.w3.org/2000/svg" xmlns:xlink="http://www.w3.org/1999/xlink" viewBox="0 0 1000 1000"><defs><style>.cls-1{isolation:isolate;}.cls-2{fill:url(#radial-gradient);}.cls-3,.cls-4,.cls-5{mix-blend-mode:overlay;}.cls-3{fill:url(#radial-gradient-2);}.cls-4{opacity:0.4;fill:url(#radial-gradient-3);}.cls-5{opacity:0.2;fill:url(#Degradado_sin_nombre_34);}</style><radialGradient id="radial-gradient" cx="626.1" cy="294.73" r="762.76" gradientTransform="translate(1252.19 510.03) rotate(180) scale(1 0.73)" gradientUnits="userSpaceOnUse"><stop offset="0" stop-color="#fff"/><stop offset="0.2" stop-color="#d5f3ff"/><stop offset="1" stop-color="#85bcf1"/></radialGradient><radialGradient id="radial-gradient-2" cx="4656.56" cy="-1271.21" r="92.02" gradientTransform="matrix(-0.84, 1.15, -1.62, -1.31, 2427.44, -6701.22)" gradientUnits="userSpaceOnUse"><stop offset="0" stop-color="#fff"/><stop offset="0.1" stop-color="#fff" stop-opacity="0.85"/><stop offset="0.29" stop-color="#fff" stop-opacity="0.59"/><stop offset="0.47" stop-color="#fff" stop-opacity="0.38"/><stop offset="0.63" stop-color="#fff" stop-opacity="0.22"/><stop offset="0.78" stop-color="#fff" stop-opacity="0.1"/><stop offset="0.91" stop-color="#fff" stop-opacity="0.03"/><stop offset="1" stop-color="#fff" stop-opacity="0"/></radialGradient><radialGradient id="radial-gradient-3" cx="4653.79" cy="-1441.2" r="72.32" xlink:href="#radial-gradient-2"/><radialGradient id="Degradado_sin_nombre_34" cx="118.71" cy="704.56" r="52.88" gradientTransform="matrix(0.9, -0.43, 1.26, 2.62, -877.95, -1091.95)" xlink:href="#radial-gradient-2"/></defs><g class="cls-1"><g id="Layer_1" data-name="Layer 1"><path class="cls-2" d="M792.48,418.16c-10.41-152.5-137.33-273-292.48-273s-282.07,120.51-292.48,273C92,423.89,0,519.39,0,636.35,0,757,97.8,854.85,218.47,854.85H781.53C902.18,854.85,1000,757,1000,636.35,1000,519.39,908.05,423.89,792.48,418.16Z"/><path class="cls-3" d="M500,445.35C417.78,378.62,385.65,277,428.29,218.42S572.21,166.36,654.49,233,768.8,401.39,726.18,460,582.25,512,500,445.35Z"/><path class="cls-4" d="M794,642.57c-64.63-52.46-89.89-132.3-56.38-178.37s113.11-40.89,177.78,11.51S1005.26,608,971.78,654,858.65,695,794,642.57Z"/><path class="cls-5" d="M156.2,649.88c-47.69-74.4-103.09-110.22-123.84-80s1.19,115,48.85,189.39,103.16,110.25,123.85,80S203.9,724.31,156.2,649.88Z"/></g></g></svg>