<svg xmlns="http://www.w3.org/2000/svg" xmlns:xlink="http://www.w3.org/1999/xlink" viewBox="0 0 1000 1000"><defs><style>.cls-1{isolation:isolate;}.cls-2{fill:url(#radial-gradient);}.cls-3{opacity:0.6;fill:url(#radial-gradient-2);}.cls-3,.cls-4,.cls-5,.cls-7,.cls-8,.cls-9{mix-blend-mode:overlay;}.cls-4,.cls-8{opacity:0.4;}.cls-4{fill:url(#radial-gradient-3);}.cls-5,.cls-9{opacity:0.2;}.cls-5{fill:url(#Degradado_sin_nombre_34);}.cls-6{fill:url(#radial-gradient-4);}.cls-7{fill:url(#radial-gradient-5);}.cls-8{fill:url(#radial-gradient-6);}.cls-9{fill:url(#Degradado_sin_nombre_34-2);}</style><radialGradient id="radial-gradient" cx="714.12" cy="285.61" r="583.17" gradientTransform="translate(1428.25 494.24) rotate(180) scale(1 0.73)" gradientUnits="userSpaceOnUse"><stop offset="0" stop-color="#b6ccd2"/><stop offset="0.2" stop-color="#97b6be"/><stop offset="1" stop-color="#5d87b4"/></radialGradient><radialGradient id="radial-gradient-2" cx="2567.84" cy="-398.47" r="70.36" gradientTransform="matrix(-0.84, 1.15, -1.62, -1.31, 2202.43, -3165.69)" gradientUnits="userSpaceOnUse"><stop offset="0" stop-color="#fff"/><stop offset="0.1" stop-color="#fff" stop-opacity="0.85"/><stop offset="0.29" stop-color="#fff" stop-opacity="0.59"/><stop offset="0.47" stop-color="#fff" stop-opacity="0.38"/><stop offset="0.63" stop-color="#fff" stop-opacity="0.22"/><stop offset="0.78" stop-color="#fff" stop-opacity="0.1"/><stop offset="0.91" stop-color="#fff" stop-opacity="0.03"/><stop offset="1" stop-color="#fff" stop-opacity="0"/></radialGradient><radialGradient id="radial-gradient-3" cx="2572.66" cy="-522.34" r="55.29" xlink:href="#radial-gradient-2"/><radialGradient id="Degradado_sin_nombre_34" cx="326.2" cy="598.95" r="40.43" gradientTransform="matrix(0.9, -0.43, 1.26, 2.62, -724.04, -830.54)" xlink:href="#radial-gradient-2"/><radialGradient id="radial-gradient-4" cx="478.7" cy="400.51" r="583.18" gradientTransform="translate(957.39 693.07) rotate(180) scale(1 0.73)" gradientUnits="userSpaceOnUse"><stop offset="0" stop-color="#fff"/><stop offset="0.2" stop-color="#d5f3ff"/><stop offset="1" stop-color="#85bcf1"/></radialGradient><radialGradient id="radial-gradient-5" cx="2741.51" cy="-333.37" r="70.36" xlink:href="#radial-gradient-2"/><radialGradient id="radial-gradient-6" cx="2739.4" cy="-463.34" r="55.29" xlink:href="#radial-gradient-2"/><radialGradient id="Degradado_sin_nombre_34-2" cx="90.77" cy="713.85" r="40.43" gradientTransform="matrix(0.9, -0.43, 1.26, 2.62, -892.44, -1119.15)" xlink:href="#radial-gradient-2"/></defs><g class="cls-1"><g id="Layer_1" data-name="Layer 1"><path class="cls-2" d="M841.34,380c-8-116.6-105-208.73-223.63-208.73S402.05,263.38,394.09,380a167,167,0,0,0,8.38,333.86H833A167,167,0,0,0,841.34,380Z"/><path class="cls-3" d="M633.42,400.77c-62.88-51-87.44-128.7-54.84-173.52s110-39.79,172.94,11.18,87.4,128.73,54.83,173.51S696.3,451.75,633.42,400.77Z"/><path class="cls-4" d="M842.52,551.54c-49.42-40.09-68.72-101.13-43.11-136.36s86.48-31.27,135.92,8.78S1004,525.13,978.41,560.33,891.93,591.62,842.52,551.54Z"/><path class="cls-5" d="M354.86,557.15C318.39,500.26,276,472.88,260.17,496s.92,87.88,37.35,144.8,78.87,84.28,94.7,61.19S391.33,614.05,354.86,557.15Z"/><path class="cls-6" d="M605.91,494.88c-8-116.6-105-208.73-223.62-208.73S166.63,378.28,158.66,494.88A167,167,0,0,0,167,828.75h430.5a167,167,0,0,0,8.37-333.87Z"/><path class="cls-7" d="M382.3,515.66c-62.87-51-87.44-128.69-54.84-173.5s110-39.8,173,11.17,87.39,128.72,54.82,173.52S445.18,566.65,382.3,515.66Z"/><path class="cls-8" d="M607.1,666.45C557.68,626.34,538.37,565.3,564,530.07s86.48-31.25,135.92,8.81S768.59,640,743,675.22,656.5,706.51,607.1,666.45Z"/><path class="cls-9" d="M119.44,672c-36.47-56.88-78.83-84.27-94.7-61.2s.92,87.91,37.36,144.81,78.86,84.29,94.69,61.2S155.9,729,119.44,672Z"/></g></g></svg>