<svg xmlns="http://www.w3.org/2000/svg" xmlns:xlink="http://www.w3.org/1999/xlink" viewBox="0 0 1000 1000"><defs><style>.cls-1{isolation:isolate;}.cls-2{fill:url(#radial-gradient);}.cls-11,.cls-13,.cls-3,.cls-4,.cls-5,.cls-7,.cls-9{mix-blend-mode:overlay;}.cls-3{fill:url(#radial-gradient-2);}.cls-4{opacity:0.4;fill:url(#radial-gradient-3);}.cls-5{opacity:0.2;fill:url(#Degradado_sin_nombre_34);}.cls-6{fill:url(#radial-gradient-4);}.cls-7{fill:url(#radial-gradient-5);}.cls-8{fill:url(#radial-gradient-6);}.cls-9{fill:url(#radial-gradient-7);}.cls-10{fill:url(#radial-gradient-8);}.cls-11{fill:url(#radial-gradient-9);}.cls-12{fill:url(#radial-gradient-10);}.cls-13{fill:url(#radial-gradient-11);}</style><radialGradient id="radial-gradient" cx="626.1" cy="216.45" r="762.74" gradientTransform="translate(1252.19 374.56) rotate(180) scale(1 0.73)" gradientUnits="userSpaceOnUse"><stop offset="0" stop-color="#fff"/><stop offset="0.2" stop-color="#d5f3ff"/><stop offset="1" stop-color="#85bcf1"/></radialGradient><radialGradient id="radial-gradient-2" cx="1671.91" cy="-2041.78" r="92.02" gradientTransform="matrix(-0.84, 1.15, -1.62, -1.31, -1324.53, -4347.87)" gradientUnits="userSpaceOnUse"><stop offset="0" stop-color="#fff"/><stop offset="0.1" stop-color="#fff" stop-opacity="0.85"/><stop offset="0.29" stop-color="#fff" stop-opacity="0.59"/><stop offset="0.47" stop-color="#fff" stop-opacity="0.38"/><stop offset="0.63" stop-color="#fff" stop-opacity="0.22"/><stop offset="0.78" stop-color="#fff" stop-opacity="0.1"/><stop offset="0.91" stop-color="#fff" stop-opacity="0.03"/><stop offset="1" stop-color="#fff" stop-opacity="0"/></radialGradient><radialGradient id="radial-gradient-3" cx="1669.14" cy="-2211.78" r="72.32" xlink:href="#radial-gradient-2"/><radialGradient id="Degradado_sin_nombre_34" cx="118.71" cy="626.27" r="52.88" gradientTransform="matrix(0.9, -0.43, 1.26, 2.62, -779.08, -964.89)" xlink:href="#radial-gradient-2"/><radialGradient id="radial-gradient-4" cx="398.14" cy="839.63" r="107.38" gradientTransform="translate(271.31 -25.54) rotate(30)" gradientUnits="userSpaceOnUse"><stop offset="0" stop-color="#d0f2ff"/><stop offset="0.2" stop-color="#d5f3ff"/><stop offset="1" stop-color="#85bcf1"/></radialGradient><radialGradient id="radial-gradient-5" cx="2061.27" cy="-2133.76" r="16.82" gradientTransform="matrix(-1.3, 0.58, -0.75, -1.95, 1298.53, -4452.95)" xlink:href="#radial-gradient-2"/><radialGradient id="radial-gradient-6" cx="559.79" cy="746.29" r="107.39" xlink:href="#radial-gradient-4"/><radialGradient id="radial-gradient-7" cx="1938.92" cy="-2170.19" r="16.82" gradientTransform="matrix(-1.3, 0.58, -0.75, -1.95, 1298.53, -4452.95)" xlink:href="#radial-gradient-2"/><radialGradient id="radial-gradient-8" cx="721.44" cy="652.96" r="107.38" xlink:href="#radial-gradient-4"/><radialGradient id="radial-gradient-9" cx="1816.56" cy="-2206.62" r="16.82" gradientTransform="matrix(-1.3, 0.58, -0.75, -1.95, 1298.53, -4452.95)" xlink:href="#radial-gradient-2"/><radialGradient id="radial-gradient-10" cx="883.09" cy="559.63" r="107.38" xlink:href="#radial-gradient-4"/><radialGradient id="radial-gradient-11" cx="1694.21" cy="-2243.05" r="16.82" gradientTransform="matrix(-1.3, 0.58, -0.75, -1.95, 1298.53, -4452.95)" xlink:href="#radial-gradient-2"/></defs><g class="cls-1"><g id="Layer_1" data-name="Layer 1"><path class="cls-2" d="M792.48,339.88c-10.41-152.5-137.33-273-292.48-273s-282.07,120.51-292.48,273C92,345.58,0,441.09,0,558.07,0,678.73,97.81,776.54,218.47,776.54H781.53c120.65,0,218.47-97.81,218.47-218.47C1000,441.09,908.05,345.58,792.48,339.88Z"/><path class="cls-3" d="M500,367c-82.25-66.73-114.37-168.29-71.73-226.93s143.92-52,226.19,14.64,114.32,168.34,71.7,226.93S582.25,433.73,500,367Z"/><path class="cls-4" d="M794,564.27c-64.64-52.44-89.88-132.3-56.38-178.35S850.76,345,915.42,397.41s89.84,132.31,56.36,178.35S858.65,616.68,794,564.27Z"/><path class="cls-5" d="M156.2,571.58c-47.69-74.41-103.09-110.2-123.84-80S33.55,606.5,81.21,680.93,184.37,791.17,205.06,761,203.9,646,156.2,571.58Z"/><path class="cls-6" d="M256,910.81a44.64,44.64,0,0,1-77.31-44.64c12.33-21.35,88.55-64.12,88.55-64.12S268.35,889.46,256,910.81Z"/><path class="cls-7" d="M180,903.39c-6.92-18.07-2.73-37.09,9.39-42.47s27.53,4.89,34.46,23,2.71,37.11-9.39,42.47S186.94,921.48,180,903.39Z"/><path class="cls-8" d="M442.68,910.81a44.64,44.64,0,0,1-77.31-44.64c12.33-21.35,88.56-64.12,88.56-64.12S455,889.46,442.68,910.81Z"/><path class="cls-9" d="M366.68,903.39c-6.92-18.07-2.72-37.09,9.39-42.47s27.54,4.89,34.46,23,2.72,37.11-9.39,42.47S373.6,921.48,366.68,903.39Z"/><path class="cls-10" d="M629.34,910.81A44.64,44.64,0,0,1,552,866.17c12.33-21.35,88.55-64.12,88.55-64.12S641.67,889.46,629.34,910.81Z"/><path class="cls-11" d="M553.34,903.39c-6.92-18.07-2.73-37.09,9.39-42.47s27.54,4.89,34.47,23,2.71,37.11-9.39,42.47S560.26,921.48,553.34,903.39Z"/><path class="cls-12" d="M816,910.81a44.64,44.64,0,0,1-77.31-44.64c12.33-21.35,88.55-64.12,88.55-64.12S828.32,889.46,816,910.81Z"/><path class="cls-13" d="M740,903.39c-6.91-18.07-2.72-37.09,9.4-42.47s27.53,4.89,34.46,23,2.71,37.11-9.39,42.47S746.91,921.48,740,903.39Z"/></g></g></svg>