<svg xmlns="http://www.w3.org/2000/svg" xmlns:xlink="http://www.w3.org/1999/xlink" viewBox="0 0 1000 1000"><defs><style>.cls-1{isolation:isolate;}.cls-2{fill:url(#linear-gradient);}.cls-3{fill:url(#radial-gradient);}.cls-10,.cls-12,.cls-14,.cls-16,.cls-18,.cls-4,.cls-5,.cls-8,.cls-9{mix-blend-mode:overlay;}.cls-4{fill:url(#radial-gradient-2);}.cls-5,.cls-9{opacity:0.4;}.cls-5{fill:url(#Degradado_sin_nombre_34);}.cls-6{fill:url(#radial-gradient-3);}.cls-7{fill:url(#radial-gradient-4);}.cls-8{fill:url(#radial-gradient-5);}.cls-9{fill:url(#radial-gradient-6);}.cls-10{opacity:0.2;fill:url(#Degradado_sin_nombre_34-2);}.cls-11{fill:url(#radial-gradient-7);}.cls-12{fill:url(#radial-gradient-8);}.cls-13{fill:url(#radial-gradient-9);}.cls-14{fill:url(#radial-gradient-10);}.cls-15{fill:url(#radial-gradient-11);}.cls-16{fill:url(#radial-gradient-12);}.cls-17{fill:url(#radial-gradient-13);}.cls-18{fill:url(#radial-gradient-14);}</style><linearGradient id="linear-gradient" x1="973.22" y1="51.04" x2="439.67" y2="647.27" gradientUnits="userSpaceOnUse"><stop offset="0" stop-color="#ffba24"/><stop offset="1" stop-color="#f50"/></linearGradient><radialGradient id="radial-gradient" cx="-1962.18" cy="219.37" r="426.84" gradientTransform="matrix(-1, 0, 0, 1, -1214.33, 0)" gradientUnits="userSpaceOnUse"><stop offset="0" stop-color="#fff4c3"/><stop offset="0.16" stop-color="#ffe036"/><stop offset="1" stop-color="#fa761c"/></radialGradient><radialGradient id="radial-gradient-2" cx="-445.49" cy="-1211.01" r="64.07" gradientTransform="matrix(-0.84, 1.15, -1.62, -1.31, -1549.54, -812.35)" gradientUnits="userSpaceOnUse"><stop offset="0" stop-color="#fff"/><stop offset="0.1" stop-color="#fff" stop-opacity="0.85"/><stop offset="0.29" stop-color="#fff" stop-opacity="0.59"/><stop offset="0.47" stop-color="#fff" stop-opacity="0.38"/><stop offset="0.63" stop-color="#fff" stop-opacity="0.22"/><stop offset="0.78" stop-color="#fff" stop-opacity="0.1"/><stop offset="0.91" stop-color="#fff" stop-opacity="0.03"/><stop offset="1" stop-color="#fff" stop-opacity="0"/></radialGradient><radialGradient id="Degradado_sin_nombre_34" cx="-4178.42" cy="5568.82" r="61.83" gradientTransform="matrix(-1.17, -1.1, 0.22, -0.73, -5561.98, -65.32)" xlink:href="#radial-gradient-2"/><radialGradient id="radial-gradient-3" cx="539.83" cy="322.02" r="657.66" gradientTransform="translate(1079.66 557.25) rotate(180) scale(1 0.73)" gradientUnits="userSpaceOnUse"><stop offset="0" stop-color="#fff"/><stop offset="0.2" stop-color="#d5f3ff"/><stop offset="1" stop-color="#85bcf1"/></radialGradient><radialGradient id="radial-gradient-4" cx="624.51" cy="359.41" r="577.59" gradientUnits="userSpaceOnUse"><stop offset="0" stop-color="#ffe036"/><stop offset="0.08" stop-color="#fecb31" stop-opacity="0.81"/><stop offset="0.18" stop-color="#fdb52b" stop-opacity="0.6"/><stop offset="0.28" stop-color="#fca227" stop-opacity="0.41"/><stop offset="0.38" stop-color="#fb9223" stop-opacity="0.26"/><stop offset="0.48" stop-color="#fb8620" stop-opacity="0.15"/><stop offset="0.58" stop-color="#fa7d1e" stop-opacity="0.07"/><stop offset="0.68" stop-color="#fa781c" stop-opacity="0.02"/><stop offset="0.77" stop-color="#fa761c" stop-opacity="0"/></radialGradient><radialGradient id="radial-gradient-5" cx="-265.8" cy="-1127.01" r="79.35" xlink:href="#radial-gradient-2"/><radialGradient id="radial-gradient-6" cx="-268.19" cy="-1273.58" r="62.36" xlink:href="#radial-gradient-2"/><radialGradient id="Degradado_sin_nombre_34-2" cx="102.35" cy="675.38" r="45.6" gradientTransform="matrix(0.9, -0.43, 1.26, 2.62, -842.71, -1051.68)" xlink:href="#radial-gradient-2"/><radialGradient id="radial-gradient-7" cx="-266.3" cy="489.55" r="92.59" gradientTransform="translate(644.63 621.14) rotate(30)" gradientUnits="userSpaceOnUse"><stop offset="0" stop-color="#d0f2ff"/><stop offset="0.2" stop-color="#d5f3ff"/><stop offset="1" stop-color="#85bcf1"/></radialGradient><radialGradient id="radial-gradient-8" cx="137.87" cy="-864.89" r="14.5" gradientTransform="matrix(-1.3, 0.58, -0.75, -1.95, -290.84, -857.05)" xlink:href="#radial-gradient-2"/><radialGradient id="radial-gradient-9" cx="-126.93" cy="409.08" r="92.59" xlink:href="#radial-gradient-7"/><radialGradient id="radial-gradient-10" cx="32.38" cy="-896.3" r="14.5" gradientTransform="matrix(-1.3, 0.58, -0.75, -1.95, -290.84, -857.05)" xlink:href="#radial-gradient-2"/><radialGradient id="radial-gradient-11" cx="12.45" cy="328.6" r="92.59" xlink:href="#radial-gradient-7"/><radialGradient id="radial-gradient-12" cx="-73.12" cy="-927.71" r="14.5" gradientTransform="matrix(-1.3, 0.58, -0.75, -1.95, -290.84, -857.05)" xlink:href="#radial-gradient-2"/><radialGradient id="radial-gradient-13" cx="151.83" cy="248.13" r="92.59" xlink:href="#radial-gradient-7"/><radialGradient id="radial-gradient-14" cx="-178.62" cy="-959.12" r="14.5" gradientTransform="matrix(-1.3, 0.58, -0.75, -1.95, -290.84, -857.05)" xlink:href="#radial-gradient-2"/></defs><g class="cls-1"><g id="Layer_1" data-name="Layer 1"><polygon class="cls-2" points="933.96 549.55 867.46 553.92 854.93 619.37 790.94 600.74 756.78 657.96 703.01 618.57 651.35 660.65 614.31 605.25 551.36 627.12 535.5 562.4 468.86 561.41 476.11 495.16 413.81 471.46 443.29 411.68 392.86 368.09 441 322 408.52 263.81 469.52 236.95 458.9 171.15 525.4 166.8 537.93 101.33 601.93 119.96 636.08 62.73 689.84 102.13 741.52 60.05 778.55 115.44 841.5 93.58 857.36 158.3 924 159.28 916.76 225.54 979.04 249.24 949.58 309.02 1000 352.61 951.88 398.7 984.35 456.89 923.35 483.75 933.96 549.55"/><path class="cls-3" d="M471.58,360.34c0,124.19,100.67,224.86,224.85,224.86S921.28,484.53,921.28,360.34,820.61,135.5,696.43,135.5,471.58,236.18,471.58,360.34Z"/><path class="cls-4" d="M730.69,337.21c-57.26-46.45-79.63-117.19-49.94-158S781,143,838.24,189.4s79.59,117.21,49.92,158S787.94,383.65,730.69,337.21Z"/><path class="cls-5" d="M497.7,410.05c7.6-24.86,46.15-14.57,86.17,23s66.28,88.19,58.73,113.08-46.14,14.57-86.17-23S490.14,434.88,497.7,410.05Z"/><path class="cls-6" d="M683.29,428.44c-9-131.49-118.41-235.39-252.18-235.39S187.9,297,178.92,428.44C79.28,433.38,0,515.71,0,616.57,0,720.62,84.33,805,188.37,805H673.84c104,0,188.37-84.34,188.37-188.39C862.21,515.71,782.93,433.38,683.29,428.44Z"/><path class="cls-7" d="M683.29,428.44c-9-131.49-118.41-235.39-252.18-235.39S187.9,297,178.92,428.44C79.28,433.38,0,515.71,0,616.57,0,720.62,84.33,805,188.37,805H673.84c104,0,188.37-84.34,188.37-188.39C862.21,515.71,782.93,433.38,683.29,428.44Z"/><path class="cls-8" d="M431.12,451.88c-70.91-57.53-98.61-145.13-61.85-195.68s124.09-44.86,195,12.62S662.87,414,626.12,464.5,502,509.38,431.12,451.88Z"/><path class="cls-9" d="M684.62,621.91c-55.73-45.21-77.5-114-48.61-153.78s97.52-35.24,153.28,9.91,77.46,114.09,48.59,153.78S740.33,667.11,684.62,621.91Z"/><path class="cls-10" d="M134.68,628.24c-41.12-64.16-88.89-95-106.78-69s1,99.11,42.12,163.28,88.94,95,106.78,69S175.8,692.41,134.68,628.24Z"/><path class="cls-11" d="M220.75,920.7a38.48,38.48,0,0,1-66.65-38.48c10.62-18.41,76.34-55.29,76.34-55.29S231.38,902.29,220.75,920.7Z"/><path class="cls-12" d="M155.22,914.32c-6-15.59-2.35-32,8.1-36.63s23.74,4.24,29.71,19.83,2.34,32-8.1,36.62S161.18,929.9,155.22,914.32Z"/><path class="cls-13" d="M381.69,920.7A38.48,38.48,0,0,1,315,882.22c10.63-18.41,76.35-55.29,76.35-55.29S392.31,902.29,381.69,920.7Z"/><path class="cls-14" d="M316.15,914.32c-6-15.59-2.34-32,8.1-36.63S348,881.93,354,897.52s2.34,32-8.1,36.62S322.12,929.9,316.15,914.32Z"/><path class="cls-15" d="M542.63,920.7A38.48,38.48,0,0,1,476,882.22c10.63-18.41,76.35-55.29,76.35-55.29S553.25,902.29,542.63,920.7Z"/><path class="cls-16" d="M477.1,914.32c-6-15.59-2.35-32,8.1-36.63s23.74,4.24,29.71,19.83,2.34,32-8.09,36.62S483.06,929.9,477.1,914.32Z"/><path class="cls-17" d="M703.56,920.7a38.48,38.48,0,0,1-66.65-38.48c10.63-18.41,76.35-55.29,76.35-55.29S714.19,902.29,703.56,920.7Z"/><path class="cls-18" d="M638,914.32c-6-15.59-2.35-32,8.1-36.63s23.74,4.24,29.72,19.83,2.33,32-8.1,36.62S644,929.9,638,914.32Z"/></g></g></svg>