<svg xmlns="http://www.w3.org/2000/svg" xmlns:xlink="http://www.w3.org/1999/xlink" viewBox="0 0 1000 1000"><defs><style>.cls-1{isolation:isolate;}.cls-2{fill:url(#radial-gradient);}.cls-3{fill:#acadb2;}.cls-10,.cls-12,.cls-14,.cls-16,.cls-18,.cls-4,.cls-5,.cls-8,.cls-9{mix-blend-mode:overlay;}.cls-4{fill:url(#radial-gradient-2);}.cls-5,.cls-9{opacity:0.4;}.cls-5{fill:url(#Degradado_sin_nombre_34);}.cls-6{fill:url(#radial-gradient-3);}.cls-7{fill:url(#radial-gradient-4);}.cls-8{fill:url(#radial-gradient-5);}.cls-9{fill:url(#radial-gradient-6);}.cls-10{opacity:0.2;fill:url(#Degradado_sin_nombre_34-2);}.cls-11{fill:url(#radial-gradient-7);}.cls-12{fill:url(#radial-gradient-8);}.cls-13{fill:url(#radial-gradient-9);}.cls-14{fill:url(#radial-gradient-10);}.cls-15{fill:url(#radial-gradient-11);}.cls-16{fill:url(#radial-gradient-12);}.cls-17{fill:url(#radial-gradient-13);}.cls-18{fill:url(#radial-gradient-14);}</style><radialGradient id="radial-gradient" cx="-1980.19" cy="173.74" r="576.27" gradientTransform="matrix(-1, 0, 0, 1, -1214.33, 0)" gradientUnits="userSpaceOnUse"><stop offset="0" stop-color="#f8f8f8"/><stop offset="0.16" stop-color="#ede9f1"/><stop offset="1" stop-color="#9b9da2"/></radialGradient><radialGradient id="radial-gradient-2" cx="80.5" cy="-2522.77" r="86.5" gradientTransform="matrix(-0.84, 1.15, -1.62, -1.31, -3200.51, -3171.2)" gradientUnits="userSpaceOnUse"><stop offset="0" stop-color="#fff"/><stop offset="0.1" stop-color="#fff" stop-opacity="0.85"/><stop offset="0.29" stop-color="#fff" stop-opacity="0.59"/><stop offset="0.47" stop-color="#fff" stop-opacity="0.38"/><stop offset="0.63" stop-color="#fff" stop-opacity="0.22"/><stop offset="0.78" stop-color="#fff" stop-opacity="0.1"/><stop offset="0.91" stop-color="#fff" stop-opacity="0.03"/><stop offset="1" stop-color="#fff" stop-opacity="0"/></radialGradient><radialGradient id="Degradado_sin_nombre_34" cx="-4364.46" cy="3367.75" r="83.48" gradientTransform="matrix(-1.17, -1.1, 0.22, -0.73, -5335.54, -1828.18)" xlink:href="#radial-gradient-2"/><radialGradient id="radial-gradient-3" cx="539.83" cy="321.56" r="657.66" gradientTransform="translate(1079.66 556.45) rotate(180) scale(1 0.73)" gradientUnits="userSpaceOnUse"><stop offset="0" stop-color="#fff"/><stop offset="0.2" stop-color="#d5f3ff"/><stop offset="1" stop-color="#85bcf1"/></radialGradient><radialGradient id="radial-gradient-4" cx="624.51" cy="358.95" r="577.59" gradientUnits="userSpaceOnUse"><stop offset="0" stop-color="#fff"/><stop offset="0.08" stop-color="#f8f8f8" stop-opacity="0.81"/><stop offset="0.18" stop-color="#f0f0f0" stop-opacity="0.6"/><stop offset="0.28" stop-color="#eaeaea" stop-opacity="0.41"/><stop offset="0.38" stop-color="#e5e5e5" stop-opacity="0.26"/><stop offset="0.48" stop-color="#e0e0e0" stop-opacity="0.15"/><stop offset="0.58" stop-color="#ddd" stop-opacity="0.07"/><stop offset="0.68" stop-color="#dcdcdc" stop-opacity="0.02"/><stop offset="0.77" stop-color="#dbdbdb" stop-opacity="0"/></radialGradient><radialGradient id="radial-gradient-5" cx="290.07" cy="-2435.21" r="79.35" xlink:href="#radial-gradient-2"/><radialGradient id="radial-gradient-6" cx="287.68" cy="-2581.78" r="62.36" xlink:href="#radial-gradient-2"/><radialGradient id="Degradado_sin_nombre_34-2" cx="102.35" cy="674.92" r="45.6" gradientTransform="matrix(0.9, -0.43, 1.26, 2.62, -842.13, -1050.94)" xlink:href="#radial-gradient-2"/><radialGradient id="radial-gradient-7" cx="243.49" cy="352.51" r="92.59" gradientTransform="translate(134.63 484.46) rotate(30)" gradientUnits="userSpaceOnUse"><stop offset="0" stop-color="#d0f2ff"/><stop offset="0.2" stop-color="#d5f3ff"/><stop offset="1" stop-color="#85bcf1"/></radialGradient><radialGradient id="radial-gradient-8" cx="393.86" cy="-2332.59" r="14.5" gradientTransform="matrix(-1.3, 0.58, -0.75, -1.95, -1051.15, -3861.97)" xlink:href="#radial-gradient-2"/><radialGradient id="radial-gradient-9" cx="382.87" cy="272.04" r="92.59" xlink:href="#radial-gradient-7"/><radialGradient id="radial-gradient-10" cx="288.37" cy="-2364" r="14.5" gradientTransform="matrix(-1.3, 0.58, -0.75, -1.95, -1051.15, -3861.97)" xlink:href="#radial-gradient-2"/><radialGradient id="radial-gradient-11" cx="522.25" cy="191.57" r="92.59" xlink:href="#radial-gradient-7"/><radialGradient id="radial-gradient-12" cx="182.87" cy="-2395.41" r="14.5" gradientTransform="matrix(-1.3, 0.58, -0.75, -1.95, -1051.15, -3861.97)" xlink:href="#radial-gradient-2"/><radialGradient id="radial-gradient-13" cx="661.63" cy="111.09" r="92.59" xlink:href="#radial-gradient-7"/><radialGradient id="radial-gradient-14" cx="77.38" cy="-2426.82" r="14.5" gradientTransform="matrix(-1.3, 0.58, -0.75, -1.95, -1051.15, -3861.97)" xlink:href="#radial-gradient-2"/></defs><g class="cls-1"><g id="Layer_1" data-name="Layer 1"><path class="cls-2" d="M392.86,364.07c0,167.65,135.92,303.55,303.57,303.55S1000,531.72,1000,364.07,864.08,60.51,696.43,60.51,392.86,196.43,392.86,364.07Z"/><path class="cls-3" d="M484.32,417.78c28.52-2.57,48.9-34.93,45.54-72.28s-29.18-65.55-57.73-63-48.9,34.94-45.54,72.27S455.79,420.33,484.32,417.78Z"/><path class="cls-3" d="M459.59,444.92c-17.1,9-21.41,34.41-9.66,56.76S485,534.91,502.15,526s21.38-34.39,9.64-56.74S476.68,436,459.59,444.92Z"/><path class="cls-3" d="M527.29,418c-10.1,5.31-12.65,20.31-5.71,33.53s20.75,19.63,30.85,14.34,12.63-20.31,5.71-33.53S537.39,412.67,527.29,418Z"/><path class="cls-3" d="M976.81,375.05c-5.25-37.13-32.47-64-60.84-60s-47.08,37.35-41.83,74.49,32.47,64,60.82,60S982.06,412.16,976.81,375.05Z"/><path class="cls-3" d="M939.31,286.69c16.6-9.83,19.63-35.44,6.76-57.17s-36.73-31.4-53.36-21.59-19.63,35.42-6.76,57.16S922.69,296.51,939.31,286.69Z"/><path class="cls-3" d="M877,283.27c-7.6-12.85-21.7-18.56-31.54-12.76s-11.59,20.93-4,33.77S863.22,322.84,873,317,884.65,296.11,877,283.27Z"/><path class="cls-4" d="M742.7,332.85c-77.29-62.76-107.53-158.23-67.44-213.32S810.55,70.58,887.9,133.27s107.44,158.26,67.39,213.3S820,395.54,742.7,332.85Z"/><path class="cls-5" d="M428.13,431.16c10.25-33.58,62.29-19.66,116.33,31.09S634,581.33,623.75,614.92s-62.27,19.68-116.33-31.07S417.94,464.71,428.13,431.16Z"/><path class="cls-6" d="M683.29,428c-9-131.48-118.41-235.39-252.18-235.39S187.9,296.5,178.92,428C79.28,432.92,0,515.25,0,616.11c0,104,84.33,188.39,188.37,188.39H673.84c104,0,188.37-84.34,188.37-188.39C862.21,515.25,782.93,432.92,683.29,428Z"/><path class="cls-7" d="M683.29,428c-9-131.48-118.41-235.39-252.18-235.39S187.9,296.5,178.92,428C79.28,432.92,0,515.25,0,616.11c0,104,84.33,188.39,188.37,188.39H673.84c104,0,188.37-84.34,188.37-188.39C862.21,515.25,782.93,432.92,683.29,428Z"/><path class="cls-8" d="M431.12,451.42c-70.91-57.53-98.61-145.13-61.85-195.68s124.09-44.86,195,12.62S662.87,413.5,626.12,464,502,508.92,431.12,451.42Z"/><path class="cls-9" d="M684.62,621.45C628.89,576.24,607.12,507.4,636,467.68s97.52-35.25,153.28,9.91,77.46,114.08,48.59,153.77S740.33,666.65,684.62,621.45Z"/><path class="cls-10" d="M134.68,627.78c-41.12-64.16-88.89-95-106.78-69S28.93,657.87,70,722s88.94,95.06,106.78,69S175.8,692,134.68,627.78Z"/><path class="cls-11" d="M220.75,920.25a38.48,38.48,0,0,1-66.65-38.49c10.62-18.41,76.34-55.29,76.34-55.29S231.38,901.84,220.75,920.25Z"/><path class="cls-12" d="M155.22,913.87c-6-15.6-2.35-32,8.1-36.64s23.74,4.24,29.71,19.83,2.34,32-8.1,36.62S161.18,929.44,155.22,913.87Z"/><path class="cls-13" d="M381.69,920.25A38.49,38.49,0,0,1,315,881.76c10.63-18.41,76.35-55.29,76.35-55.29S392.31,901.84,381.69,920.25Z"/><path class="cls-14" d="M316.15,913.87c-6-15.6-2.34-32,8.1-36.64S348,881.47,354,897.06s2.34,32-8.1,36.62S322.12,929.44,316.15,913.87Z"/><path class="cls-15" d="M542.63,920.25A38.49,38.49,0,0,1,476,881.76c10.63-18.41,76.35-55.29,76.35-55.29S553.25,901.84,542.63,920.25Z"/><path class="cls-16" d="M477.1,913.87c-6-15.6-2.35-32,8.1-36.64s23.74,4.24,29.71,19.83,2.34,32-8.09,36.62S483.06,929.44,477.1,913.87Z"/><path class="cls-17" d="M703.56,920.25a38.48,38.48,0,0,1-66.65-38.49c10.63-18.41,76.35-55.29,76.35-55.29S714.19,901.84,703.56,920.25Z"/><path class="cls-18" d="M638,913.87c-6-15.6-2.35-32,8.1-36.64s23.74,4.24,29.72,19.83,2.33,32-8.1,36.62S644,929.44,638,913.87Z"/></g></g></svg>