<svg xmlns="http://www.w3.org/2000/svg" xmlns:xlink="http://www.w3.org/1999/xlink" viewBox="0 0 1000 1000"><defs><style>.cls-1{isolation:isolate;}.cls-2{fill:url(#linear-gradient);}.cls-3{fill:url(#radial-gradient);}.cls-4{opacity:0.6;fill:url(#radial-gradient-2);}.cls-10,.cls-12,.cls-14,.cls-4,.cls-5,.cls-6,.cls-8{mix-blend-mode:overlay;}.cls-5{opacity:0.4;fill:url(#radial-gradient-3);}.cls-6{opacity:0.2;fill:url(#Degradado_sin_nombre_34);}.cls-7{fill:url(#radial-gradient-4);}.cls-8{fill:url(#radial-gradient-5);}.cls-9{fill:url(#radial-gradient-6);}.cls-10{fill:url(#radial-gradient-7);}.cls-11{fill:url(#radial-gradient-8);}.cls-12{fill:url(#radial-gradient-9);}.cls-13{fill:url(#radial-gradient-10);}.cls-14{fill:url(#radial-gradient-11);}</style><linearGradient id="linear-gradient" x1="426.67" y1="991.82" x2="549.62" y2="604.64" gradientUnits="userSpaceOnUse"><stop offset="0.16" stop-color="#ffe036"/><stop offset="1" stop-color="#fa761c"/></linearGradient><radialGradient id="radial-gradient" cx="623.92" cy="146.99" r="749.58" gradientTransform="translate(1247.84 254.36) rotate(180) scale(1 0.73)" gradientUnits="userSpaceOnUse"><stop offset="0" stop-color="#b6ccd2"/><stop offset="0.2" stop-color="#97b6be"/><stop offset="1" stop-color="#5d87b4"/></radialGradient><radialGradient id="radial-gradient-2" cx="-1316.67" cy="-2821.96" r="90.43" gradientTransform="matrix(-0.84, 1.15, -1.62, -1.31, -5076.49, -1994.53)" gradientUnits="userSpaceOnUse"><stop offset="0" stop-color="#fff"/><stop offset="0.1" stop-color="#fff" stop-opacity="0.85"/><stop offset="0.29" stop-color="#fff" stop-opacity="0.59"/><stop offset="0.47" stop-color="#fff" stop-opacity="0.38"/><stop offset="0.63" stop-color="#fff" stop-opacity="0.22"/><stop offset="0.78" stop-color="#fff" stop-opacity="0.1"/><stop offset="0.91" stop-color="#fff" stop-opacity="0.03"/><stop offset="1" stop-color="#fff" stop-opacity="0"/></radialGradient><radialGradient id="radial-gradient-3" cx="-1310.47" cy="-2981.18" r="71.07" xlink:href="#radial-gradient-2"/><radialGradient id="Degradado_sin_nombre_34" cx="125.29" cy="549.74" r="51.97" gradientTransform="matrix(0.9, -0.43, 1.26, 2.62, -681.79, -837.83)" xlink:href="#radial-gradient-2"/><radialGradient id="radial-gradient-4" cx="86.53" cy="-243.21" r="105.53" gradientTransform="translate(-2.05 994.46) rotate(30)" gradientUnits="userSpaceOnUse"><stop offset="0" stop-color="#d0f2ff"/><stop offset="0.2" stop-color="#d5f3ff"/><stop offset="1" stop-color="#85bcf1"/></radialGradient><radialGradient id="radial-gradient-5" cx="-1333.16" cy="-2499.3" r="16.53" gradientTransform="matrix(-1.3, 0.58, -0.75, -1.95, -3400.82, -3270.98)" xlink:href="#radial-gradient-2"/><radialGradient id="radial-gradient-6" cx="212.03" cy="-167.27" r="105.54" xlink:href="#radial-gradient-4"/><radialGradient id="radial-gradient-7" cx="-1347.24" cy="-2569.53" r="16.53" gradientTransform="matrix(-1.3, 0.58, -0.75, -1.95, -3400.82, -3270.98)" xlink:href="#radial-gradient-2"/><radialGradient id="radial-gradient-8" cx="576.46" cy="-526.08" r="105.52" xlink:href="#radial-gradient-4"/><radialGradient id="radial-gradient-9" cx="-1703.98" cy="-2609.71" r="16.53" gradientTransform="matrix(-1.3, 0.58, -0.75, -1.95, -3400.82, -3270.98)" xlink:href="#radial-gradient-2"/><radialGradient id="radial-gradient-10" cx="535.22" cy="-353.87" r="105.53" xlink:href="#radial-gradient-4"/><radialGradient id="radial-gradient-11" cx="-1591.86" cy="-2642.37" r="16.53" gradientTransform="matrix(-1.3, 0.58, -0.75, -1.95, -3400.82, -3270.98)" xlink:href="#radial-gradient-2"/></defs><g class="cls-1"><g id="Layer_1" data-name="Layer 1"><path class="cls-2" d="M568.49,752.72H522l76.71-149.1a89.21,89.21,0,0,0,7.59-21.33A85.65,85.65,0,1,0,438.7,546.61L387.42,787.48l-1.58,7.4a52.48,52.48,0,0,0-1.07,10.54,52,52,0,0,0,51.93,52h56.78L462.84,985.13a12.06,12.06,0,0,0,21.48,9.9l122-168.1a46.73,46.73,0,0,0-37.82-74.21Z"/><path class="cls-3" d="M787.43,268.29C777.2,118.42,652.46,0,500,0S222.8,118.42,212.56,268.29C99,273.9,8.62,367.75,8.62,482.72c0,118.59,96.14,214.7,214.71,214.7H776.66c118.57,0,214.72-96.11,214.72-214.7C991.38,367.75,901,273.9,787.43,268.29Z"/><path class="cls-4" d="M520.18,295c-80.82-65.58-112.39-165.4-70.48-223S591.13,20.84,672,86.35s112.33,165.46,70.45,223S601,360.54,520.18,295Z"/><path class="cls-5" d="M789,488.8c-63.52-51.53-88.32-130-55.39-175.27s111.14-40.19,174.68,11.3,88.3,130,55.38,175.27S852.46,540.32,789,488.8Z"/><path class="cls-6" d="M162.14,496C115.25,422.87,60.82,387.7,40.43,417.35s1.17,113,48,186.11S189.81,711.8,210.15,682.12,209,569.16,162.14,496Z"/><path class="cls-7" d="M253.2,837.1a43.87,43.87,0,0,1-76-43.87c12.13-21,87-63,87-63S265.32,816.11,253.2,837.1Z"/><path class="cls-8" d="M178.52,829.8c-6.8-17.75-2.69-36.44,9.23-41.74s27.05,4.82,33.86,22.59,2.67,36.47-9.23,41.74S185.31,847.58,178.52,829.8Z"/><path class="cls-9" d="M323.93,965.61a43.87,43.87,0,0,1-76-43.87c12.12-21,87-63,87-63S336,944.62,323.93,965.61Z"/><path class="cls-10" d="M249.23,958.31c-6.8-17.75-2.68-36.44,9.23-41.74s27.06,4.82,33.87,22.59,2.66,36.47-9.23,41.74S256,976.09,249.23,958.31Z"/><path class="cls-11" d="M818.91,837.1a43.86,43.86,0,0,1-76-43.87c12.11-21,87-63,87-63S831,816.11,818.91,837.1Z"/><path class="cls-12" d="M744.23,829.8c-6.81-17.75-2.69-36.44,9.23-41.74s27,4.82,33.86,22.59,2.67,36.47-9.23,41.74S751,847.58,744.23,829.8Z"/><path class="cls-13" d="M697.1,965.61a43.87,43.87,0,0,1-76-43.87c12.12-21,87-63,87-63S709.21,944.62,697.1,965.61Z"/><path class="cls-14" d="M622.4,958.31c-6.79-17.75-2.67-36.44,9.24-41.74s27.05,4.82,33.87,22.59,2.65,36.47-9.23,41.74S629.21,976.09,622.4,958.31Z"/></g></g></svg>