<svg id="Layer_1" data-name="Layer 1" xmlns="http://www.w3.org/2000/svg" xmlns:xlink="http://www.w3.org/1999/xlink" viewBox="0 0 1000 1000"><defs><style>.cls-1{fill:url(#radial-gradient);}</style><radialGradient id="radial-gradient" cx="786.81" cy="300.51" r="852.83" gradientUnits="userSpaceOnUse"><stop offset="0" stop-color="#28cbe9"/><stop offset="1" stop-color="#0a4fbb"/></radialGradient></defs><path class="cls-1" d="M915.84,685.87l-91.47-52.8,28.3-16.32a46.94,46.94,0,1,0-46.91-81.32l-75.27,43.41L661,538.75a160.19,160.19,0,0,0,0-77.52l69.47-40.12,75.25,43.44a46.94,46.94,0,0,0,46.93-81.3L824.35,366.9l91.49-52.8a46.93,46.93,0,1,0-46.94-81.29l-91.47,52.8,0-32.68a47,47,0,0,0-46.94-47h0a46.93,46.93,0,0,0-46.95,46.92l0,86.88L614,379.93A165.55,165.55,0,0,0,547,341.09V260.93l75.26-43.46a46.94,46.94,0,0,0-47-81.3L547,152.52V46.92a46.95,46.95,0,0,0-93.89,0v105.6l-28.33-16.35a46.94,46.94,0,0,0-47,81.3l75.28,43.46v80.16A165.24,165.24,0,0,0,386,380l-69.54-40.18V252.9a46.94,46.94,0,0,0-93.88,0v32.71l-91.46-52.8A46.93,46.93,0,1,0,84.17,314.1l91.45,52.8-28.34,16.32a47,47,0,1,0,46.95,81.33l75.27-43.44L339,461.23a159.86,159.86,0,0,0,0,77.52L269.5,578.84,194.27,535.4a46.94,46.94,0,1,0-47,81.3l28.32,16.35L84.17,685.87a46.94,46.94,0,1,0,46.94,81.3l91.42-52.8V747a46.95,46.95,0,1,0,93.9,0l0-86.88L386,620a165.33,165.33,0,0,0,67,38.87V739l-75.25,43.44a46.94,46.94,0,0,0,47,81.3l28.33-16.35V953.05a46.95,46.95,0,1,0,93.89,0V847.45l28.28,16.36a46.95,46.95,0,0,0,47-81.3L546.93,739V658.86A165.05,165.05,0,0,0,614,620l69.53,40.12V747a46.95,46.95,0,1,0,93.89,0v-32.7l91.47,52.83a46.94,46.94,0,1,0,46.94-81.3ZM500,571.87A71.89,71.89,0,1,1,571.9,500,71.95,71.95,0,0,1,500,571.87Z"/></svg>